<svg width="71" height="89" viewBox="0 0 71 89" fill="none" xmlns="http://www.w3.org/2000/svg">
<g clip-path="url(#clip0_3:1362)">
<path d="M8.85062 22.125C8.77975 22.125 8.70897 22.1301 8.63884 22.1403C7.83266 22.2572 7.27394 23.0056 7.39091 23.8118L13.3831 65.1118C13.4883 65.837 14.11 66.375 14.8428 66.375H57.1829C57.9235 66.375 58.5493 65.8258 58.6454 65.0915L64.0537 23.7915C64.062 23.728 64.0662 23.664 64.0662 23.6C64.0662 22.7854 63.4058 22.125 62.5912 22.125H8.85062ZM8.85062 19.175H62.5912C65.0351 19.175 67.0162 21.1561 67.0162 23.6C67.0162 23.7921 67.0037 23.984 66.9787 24.1745L61.5704 65.4745C61.282 67.6775 59.4047 69.325 57.1829 69.325H14.8428C12.6444 69.325 10.7793 67.711 10.4636 65.5353L4.47148 24.2353C4.12057 21.8168 5.79672 19.5717 8.21526 19.2208C8.42567 19.1903 8.63801 19.175 8.85062 19.175ZM25.6853 26.55H22.7353V8.84998C22.7353 4.77688 26.0372 1.47498 30.1103 1.47498H41.9103C45.9834 1.47498 49.2853 4.77688 49.2853 8.84998V26.55H46.3353V8.84998C46.3353 6.40612 44.3541 4.42498 41.9103 4.42498H30.1103C27.6664 4.42498 25.6853 6.40612 25.6853 8.84998V26.55ZM24.2103 30.975C25.0249 30.975 25.6853 30.3146 25.6853 29.5C25.6853 28.6854 25.0249 28.025 24.2103 28.025C23.3956 28.025 22.7353 28.6854 22.7353 29.5C22.7353 30.3146 23.3956 30.975 24.2103 30.975ZM24.2103 33.925C21.7664 33.925 19.7853 31.9438 19.7853 29.5C19.7853 27.0561 21.7664 25.075 24.2103 25.075C26.6541 25.075 28.6353 27.0561 28.6353 29.5C28.6353 31.9438 26.6541 33.925 24.2103 33.925ZM47.8103 30.975C48.6249 30.975 49.2853 30.3146 49.2853 29.5C49.2853 28.6854 48.6249 28.025 47.8103 28.025C46.9956 28.025 46.3353 28.6854 46.3353 29.5C46.3353 30.3146 46.9956 30.975 47.8103 30.975ZM47.8103 33.925C45.3664 33.925 43.3853 31.9438 43.3853 29.5C43.3853 27.0561 45.3664 25.075 47.8103 25.075C50.2541 25.075 52.2353 27.0561 52.2353 29.5C52.2353 31.9438 50.2541 33.925 47.8103 33.925Z" fill="black"/>
</g>
<defs>
<clipPath id="clip0_3:1362">
<rect width="70.8" height="88.5" fill="white"/>
</clipPath>
</defs>
</svg>
