<svg width="262" height="216" viewBox="0 0 262 216" fill="none" xmlns="http://www.w3.org/2000/svg">
<path d="M12 67H249.5" stroke="black"/>
<path d="M12 124.5L170.5 124" stroke="black"/>
<path d="M12 182H207" stroke="black"/>
<path d="M24.816 60.672C31.728 60.672 36.912 56.592 36.912 49.2V26.4H29.232V49.2C29.232 51.264 28.224 53.184 24.864 53.184C22.272 53.184 21.168 52.176 20.112 50.304L13.44 54.144C15.648 58.416 19.488 60.672 24.816 60.672ZM62.865 60H71.265L59.841 26.4H50.049L38.625 60H47.025L48.705 54.72H61.185L62.865 60ZM51.009 47.52L54.945 35.184L58.881 47.52H51.009ZM88.9433 60.672C95.0873 60.672 100.463 57.648 103.343 52.896L96.7193 49.056C95.2793 51.648 92.3513 53.184 88.9433 53.184C82.9913 53.184 79.1513 49.2 79.1513 43.2C79.1513 37.2 82.9913 33.216 88.9433 33.216C92.3513 33.216 95.2313 34.752 96.7193 37.344L103.343 33.504C100.415 28.752 95.0393 25.728 88.9433 25.728C78.8153 25.728 71.4713 33.312 71.4713 43.2C71.4713 53.088 78.8153 60.672 88.9433 60.672ZM134.111 60L122.303 42.768L133.631 26.4H124.895L114.623 40.992V26.4H106.943V60H114.623V44.448L125.375 60H134.111ZM144.669 52.608V46.656H156.669V39.36H144.669V33.792H157.869V26.4H136.989V60H158.109V52.608H144.669ZM185.003 26.4H160.043V33.792H168.683V60H176.363V33.792H185.003V26.4ZM199.187 60.672C206.483 60.672 211.667 56.832 211.667 50.352C211.667 43.248 205.955 41.472 200.867 39.936C195.635 38.352 194.819 37.296 194.819 35.76C194.819 34.416 196.019 33.216 198.419 33.216C201.491 33.216 203.075 34.704 204.227 37.104L210.707 33.312C208.259 28.368 203.939 25.728 198.419 25.728C192.611 25.728 187.139 29.472 187.139 35.952C187.139 42.384 192.035 44.784 197.027 46.176C202.067 47.568 203.987 48.384 203.987 50.448C203.987 51.744 203.075 53.184 199.427 53.184C195.635 53.184 193.571 51.312 192.371 48.528L185.747 52.368C187.619 57.312 192.131 60.672 199.187 60.672Z" fill="#082A30"/>
<path d="M16.728 112.504C16.728 112.072 17.112 111.832 17.736 111.832C18.528 111.832 19.008 112.264 19.344 112.888L22.416 111.232C21.408 109.528 19.68 108.664 17.736 108.664C15.24 108.664 13.032 109.984 13.032 112.6C13.032 116.752 18.936 116.056 18.936 117.376C18.936 117.856 18.504 118.12 17.64 118.12C16.584 118.12 15.912 117.616 15.6 116.704L12.48 118.48C13.416 120.424 15.24 121.336 17.64 121.336C20.232 121.336 22.632 120.16 22.632 117.4C22.632 112.96 16.728 113.872 16.728 112.504ZM32.1814 109V115.552C32.1814 117.256 31.2694 118.024 29.9494 118.024C28.7974 118.024 27.8614 117.328 27.8614 115.84V109H24.2614V116.368C24.2614 119.608 26.3254 121.336 28.7494 121.336C30.3334 121.336 31.5334 120.76 32.1814 119.872V121H35.7814V109H32.1814ZM40.2216 107.944C41.3976 107.944 42.3816 106.96 42.3816 105.784C42.3816 104.608 41.3976 103.624 40.2216 103.624C39.0456 103.624 38.0616 104.608 38.0616 105.784C38.0616 106.96 39.0456 107.944 40.2216 107.944ZM38.4216 121H42.0216V109H38.4216V121ZM51.6879 112.456V109H49.2159V105.64L45.6159 106.72V109H43.6959V112.456H45.6159V116.704C45.6159 120.064 46.9839 121.48 51.6879 121V117.736C50.1039 117.832 49.2159 117.736 49.2159 116.704V112.456H51.6879ZM56.7079 116.44H65.2279C65.3239 115.984 65.3719 115.504 65.3719 115C65.3719 111.376 62.7799 108.664 59.2759 108.664C55.4839 108.664 52.8919 111.424 52.8919 115C52.8919 118.576 55.4359 121.336 59.5399 121.336C61.8199 121.336 63.5959 120.496 64.7719 118.864L61.8919 117.208C61.4119 117.736 60.5719 118.12 59.5879 118.12C58.2679 118.12 57.1639 117.688 56.7079 116.44ZM56.6359 113.752C56.9719 112.528 57.8839 111.856 59.2519 111.856C60.3319 111.856 61.4119 112.36 61.7959 113.752H56.6359ZM76.0086 104.2V110.128C75.2166 109.216 74.0406 108.664 72.4326 108.664C69.2886 108.664 66.6966 111.424 66.6966 115C66.6966 118.576 69.2886 121.336 72.4326 121.336C74.0406 121.336 75.2166 120.784 76.0086 119.872V121H79.6086V104.2H76.0086ZM73.1526 117.928C71.4966 117.928 70.2966 116.8 70.2966 115C70.2966 113.2 71.4966 112.072 73.1526 112.072C74.8086 112.072 76.0086 113.2 76.0086 115C76.0086 116.8 74.8086 117.928 73.1526 117.928ZM94.8497 107.32V103.864C90.8657 103.624 89.0177 105.64 89.0177 109H87.4097V112.456H89.0177V121H92.6177V112.456H94.8497V109H92.6177C92.6177 107.608 93.5057 107.2 94.8497 107.32ZM101.58 121.336C105.108 121.336 107.94 118.576 107.94 115C107.94 111.424 105.108 108.664 101.58 108.664C98.052 108.664 95.22 111.424 95.22 115C95.22 118.576 98.052 121.336 101.58 121.336ZM101.58 117.832C100.02 117.832 98.82 116.704 98.82 115C98.82 113.296 100.02 112.168 101.58 112.168C103.14 112.168 104.34 113.296 104.34 115C104.34 116.704 103.14 117.832 101.58 117.832ZM113.576 111.136V109H109.976V121H113.576V115.576C113.576 113.2 115.688 112.6 117.176 112.84V108.76C115.664 108.76 114.056 109.528 113.576 111.136Z" fill="#44240C"/>
<path d="M29.784 162.932C31.152 161.744 31.98 160.088 31.98 158C31.98 153.644 28.416 150.8 24.024 150.8H14.16V176H24.744C29.244 176 32.88 173.084 32.88 168.62C32.88 166.064 31.656 164.12 29.784 162.932ZM24.024 156.2C25.356 156.2 26.22 157.136 26.22 158.432C26.22 159.728 25.32 160.664 24.024 160.664H19.92V156.2H24.024ZM24.744 170.6H19.92V165.776H24.744C26.184 165.776 27.12 166.784 27.12 168.188C27.12 169.592 26.184 170.6 24.744 170.6ZM41.5059 170.456V165.992H50.5059V160.52H41.5059V156.344H51.4059V150.8H35.7459V176H51.5859V170.456H41.5059ZM68.0838 176H74.2758L68.9118 166.748C71.6838 165.344 73.5558 162.536 73.5558 159.44C73.5558 154.652 69.7038 150.8 64.9158 150.8H54.8358V176H60.5958V167.72H63.3318L68.0838 176ZM60.5958 156.2H64.9158C66.4998 156.2 67.7958 157.604 67.7958 159.44C67.7958 161.276 66.4998 162.68 64.9158 162.68H60.5958V156.2ZM101.581 161.96H88.9447V167H95.6767C94.7767 169.412 92.5807 170.888 89.2327 170.888C84.3367 170.888 81.3127 167.756 81.3127 163.472C81.3127 159.044 84.4807 155.912 88.7287 155.912C91.5727 155.912 93.8407 157.208 94.8847 158.864L99.7807 156.056C97.6567 152.672 93.5887 150.296 88.7647 150.296C81.3487 150.296 75.5527 156.128 75.5527 163.436C75.5527 170.672 81.2407 176.504 89.1607 176.504C96.2167 176.504 101.581 171.824 101.581 164.12V161.96ZM110.588 170.456V165.992H119.588V160.52H110.588V156.344H120.488V150.8H104.828V176H120.668V170.456H110.588ZM137.958 150.8V164.48L128.238 150.8H123.918V176H129.678V162.32L139.398 176H143.718V150.8H137.958Z" fill="#082A30"/>
<rect x="0.5" y="0.5" width="261" height="215" stroke="black"/>
</svg>
