<svg width="1001" height="304" viewBox="0 0 1001 304" fill="none" xmlns="http://www.w3.org/2000/svg">
<rect x="718.5" y="108.5" width="145" height="181.5" stroke="black"/>
<path d="M495.267 261.436C495.1 260.939 494.836 260.479 494.491 260.084C494.145 259.688 493.726 259.365 493.256 259.131C492.785 258.898 492.274 258.76 491.75 258.724C491.226 258.689 490.701 258.757 490.203 258.924C489.706 259.092 489.246 259.356 488.851 259.701C488.455 260.046 488.132 260.466 487.898 260.936C487.665 261.406 487.527 261.918 487.491 262.442C487.456 262.965 487.523 263.491 487.691 263.988L491.679 275.951C491.934 276.711 492.414 277.377 493.054 277.861C493.694 278.345 494.466 278.624 495.267 278.662C495.699 278.652 496.128 278.584 496.543 278.463C497.059 278.317 497.541 278.069 497.959 277.733C498.377 277.397 498.723 276.98 498.976 276.507C499.229 276.035 499.384 275.516 499.432 274.982C499.48 274.447 499.42 273.909 499.255 273.399L495.267 261.436Z" fill="black"/>
<path d="M476.606 258.924C476.108 258.755 475.582 258.686 475.058 258.721C474.534 258.756 474.022 258.895 473.551 259.128C473.081 259.361 472.661 259.685 472.316 260.082C471.971 260.478 471.708 260.938 471.541 261.436L467.554 273.399C467.354 273.908 467.26 274.453 467.279 275C467.299 275.546 467.43 276.083 467.666 276.577C467.901 277.071 468.236 277.51 468.649 277.869C469.062 278.228 469.544 278.498 470.066 278.662C470.49 278.717 470.918 278.717 471.342 278.662C472.178 278.665 472.993 278.404 473.673 277.917C474.353 277.431 474.863 276.743 475.13 275.951L479.118 263.988C479.287 263.491 479.355 262.965 479.321 262.441C479.286 261.917 479.147 261.405 478.914 260.934C478.681 260.464 478.356 260.044 477.96 259.699C477.564 259.354 477.104 259.091 476.606 258.924Z" fill="black"/>
<path d="M12 75H249.5" stroke="black"/>
<path d="M12 132.5L170.5 132" stroke="black"/>
<path d="M12 190H207" stroke="black"/>
<path d="M24.816 68.672C31.728 68.672 36.912 64.592 36.912 57.2V34.4H29.232V57.2C29.232 59.264 28.224 61.184 24.864 61.184C22.272 61.184 21.168 60.176 20.112 58.304L13.44 62.144C15.648 66.416 19.488 68.672 24.816 68.672ZM62.865 68H71.265L59.841 34.4H50.049L38.625 68H47.025L48.705 62.72H61.185L62.865 68ZM51.009 55.52L54.945 43.184L58.881 55.52H51.009ZM88.9433 68.672C95.0873 68.672 100.463 65.648 103.343 60.896L96.7193 57.056C95.2793 59.648 92.3513 61.184 88.9433 61.184C82.9913 61.184 79.1513 57.2 79.1513 51.2C79.1513 45.2 82.9913 41.216 88.9433 41.216C92.3513 41.216 95.2313 42.752 96.7193 45.344L103.343 41.504C100.415 36.752 95.0393 33.728 88.9433 33.728C78.8153 33.728 71.4713 41.312 71.4713 51.2C71.4713 61.088 78.8153 68.672 88.9433 68.672ZM134.111 68L122.303 50.768L133.631 34.4H124.895L114.623 48.992V34.4H106.943V68H114.623V52.448L125.375 68H134.111ZM144.669 60.608V54.656H156.669V47.36H144.669V41.792H157.869V34.4H136.989V68H158.109V60.608H144.669ZM185.003 34.4H160.043V41.792H168.683V68H176.363V41.792H185.003V34.4ZM199.187 68.672C206.483 68.672 211.667 64.832 211.667 58.352C211.667 51.248 205.955 49.472 200.867 47.936C195.635 46.352 194.819 45.296 194.819 43.76C194.819 42.416 196.019 41.216 198.419 41.216C201.491 41.216 203.075 42.704 204.227 45.104L210.707 41.312C208.259 36.368 203.939 33.728 198.419 33.728C192.611 33.728 187.139 37.472 187.139 43.952C187.139 50.384 192.035 52.784 197.027 54.176C202.067 55.568 203.987 56.384 203.987 58.448C203.987 59.744 203.075 61.184 199.427 61.184C195.635 61.184 193.571 59.312 192.371 56.528L185.747 60.368C187.619 65.312 192.131 68.672 199.187 68.672Z" fill="#082A30"/>
<path d="M16.728 120.504C16.728 120.072 17.112 119.832 17.736 119.832C18.528 119.832 19.008 120.264 19.344 120.888L22.416 119.232C21.408 117.528 19.68 116.664 17.736 116.664C15.24 116.664 13.032 117.984 13.032 120.6C13.032 124.752 18.936 124.056 18.936 125.376C18.936 125.856 18.504 126.12 17.64 126.12C16.584 126.12 15.912 125.616 15.6 124.704L12.48 126.48C13.416 128.424 15.24 129.336 17.64 129.336C20.232 129.336 22.632 128.16 22.632 125.4C22.632 120.96 16.728 121.872 16.728 120.504ZM32.1814 117V123.552C32.1814 125.256 31.2694 126.024 29.9494 126.024C28.7974 126.024 27.8614 125.328 27.8614 123.84V117H24.2614V124.368C24.2614 127.608 26.3254 129.336 28.7494 129.336C30.3334 129.336 31.5334 128.76 32.1814 127.872V129H35.7814V117H32.1814ZM40.2216 115.944C41.3976 115.944 42.3816 114.96 42.3816 113.784C42.3816 112.608 41.3976 111.624 40.2216 111.624C39.0456 111.624 38.0616 112.608 38.0616 113.784C38.0616 114.96 39.0456 115.944 40.2216 115.944ZM38.4216 129H42.0216V117H38.4216V129ZM51.6879 120.456V117H49.2159V113.64L45.6159 114.72V117H43.6959V120.456H45.6159V124.704C45.6159 128.064 46.9839 129.48 51.6879 129V125.736C50.1039 125.832 49.2159 125.736 49.2159 124.704V120.456H51.6879ZM56.7079 124.44H65.2279C65.3239 123.984 65.3719 123.504 65.3719 123C65.3719 119.376 62.7799 116.664 59.2759 116.664C55.4839 116.664 52.8919 119.424 52.8919 123C52.8919 126.576 55.4359 129.336 59.5399 129.336C61.8199 129.336 63.5959 128.496 64.7719 126.864L61.8919 125.208C61.4119 125.736 60.5719 126.12 59.5879 126.12C58.2679 126.12 57.1639 125.688 56.7079 124.44ZM56.6359 121.752C56.9719 120.528 57.8839 119.856 59.2519 119.856C60.3319 119.856 61.4119 120.36 61.7959 121.752H56.6359ZM76.0086 112.2V118.128C75.2166 117.216 74.0406 116.664 72.4326 116.664C69.2886 116.664 66.6966 119.424 66.6966 123C66.6966 126.576 69.2886 129.336 72.4326 129.336C74.0406 129.336 75.2166 128.784 76.0086 127.872V129H79.6086V112.2H76.0086ZM73.1526 125.928C71.4966 125.928 70.2966 124.8 70.2966 123C70.2966 121.2 71.4966 120.072 73.1526 120.072C74.8086 120.072 76.0086 121.2 76.0086 123C76.0086 124.8 74.8086 125.928 73.1526 125.928ZM94.8497 115.32V111.864C90.8657 111.624 89.0177 113.64 89.0177 117H87.4097V120.456H89.0177V129H92.6177V120.456H94.8497V117H92.6177C92.6177 115.608 93.5057 115.2 94.8497 115.32ZM101.58 129.336C105.108 129.336 107.94 126.576 107.94 123C107.94 119.424 105.108 116.664 101.58 116.664C98.052 116.664 95.22 119.424 95.22 123C95.22 126.576 98.052 129.336 101.58 129.336ZM101.58 125.832C100.02 125.832 98.82 124.704 98.82 123C98.82 121.296 100.02 120.168 101.58 120.168C103.14 120.168 104.34 121.296 104.34 123C104.34 124.704 103.14 125.832 101.58 125.832ZM113.576 119.136V117H109.976V129H113.576V123.576C113.576 121.2 115.688 120.6 117.176 120.84V116.76C115.664 116.76 114.056 117.528 113.576 119.136Z" fill="#44240C"/>
<path d="M29.784 170.932C31.152 169.744 31.98 168.088 31.98 166C31.98 161.644 28.416 158.8 24.024 158.8H14.16V184H24.744C29.244 184 32.88 181.084 32.88 176.62C32.88 174.064 31.656 172.12 29.784 170.932ZM24.024 164.2C25.356 164.2 26.22 165.136 26.22 166.432C26.22 167.728 25.32 168.664 24.024 168.664H19.92V164.2H24.024ZM24.744 178.6H19.92V173.776H24.744C26.184 173.776 27.12 174.784 27.12 176.188C27.12 177.592 26.184 178.6 24.744 178.6ZM41.5059 178.456V173.992H50.5059V168.52H41.5059V164.344H51.4059V158.8H35.7459V184H51.5859V178.456H41.5059ZM68.0838 184H74.2758L68.9118 174.748C71.6838 173.344 73.5558 170.536 73.5558 167.44C73.5558 162.652 69.7038 158.8 64.9158 158.8H54.8358V184H60.5958V175.72H63.3318L68.0838 184ZM60.5958 164.2H64.9158C66.4998 164.2 67.7958 165.604 67.7958 167.44C67.7958 169.276 66.4998 170.68 64.9158 170.68H60.5958V164.2ZM101.581 169.96H88.9447V175H95.6767C94.7767 177.412 92.5807 178.888 89.2327 178.888C84.3367 178.888 81.3127 175.756 81.3127 171.472C81.3127 167.044 84.4807 163.912 88.7287 163.912C91.5727 163.912 93.8407 165.208 94.8847 166.864L99.7807 164.056C97.6567 160.672 93.5887 158.296 88.7647 158.296C81.3487 158.296 75.5527 164.128 75.5527 171.436C75.5527 178.672 81.2407 184.504 89.1607 184.504C96.2167 184.504 101.581 179.824 101.581 172.12V169.96ZM110.588 178.456V173.992H119.588V168.52H110.588V164.344H120.488V158.8H104.828V184H120.668V178.456H110.588ZM137.958 158.8V172.48L128.238 158.8H123.918V184H129.678V170.32L139.398 184H143.718V158.8H137.958Z" fill="#082A30"/>
<rect x="0.5" y="8.5" width="261" height="215" stroke="black"/>
<path d="M615.733 18.654C605.153 24.4154 594.374 30.7439 585.724 35.6563C584.692 36.2521 584.085 37.3704 583.558 38.231C566.562 69.1553 566.8 104.507 566.8 137.254C566.8 139.844 569.158 142.2 571.75 142.2H586.6C589.076 142.2 591.369 140.082 591.55 137.615C591.632 136.524 591.719 135.453 591.808 134.369C593.7 136.803 596.919 138.299 599.594 138.748C606.793 139.702 614.094 141.385 621.25 142.148C623.334 142.148 624.325 141.481 625.22 140.963C626.31 140.396 627.396 139.467 628.108 138.851H630.892C631.796 139.679 632.933 140.417 633.831 141.014C634.731 141.522 635.689 142.148 637.75 142.148C644.945 141.181 652.281 139.902 659.509 138.748C662.896 137.997 665.118 136.771 667.192 134.524C667.276 135.556 667.372 136.575 667.45 137.615C667.631 140.082 669.924 142.206 672.4 142.2H687.25C689.842 142.2 692.2 139.844 692.2 137.254C692.2 104.273 692.449 68.6428 675.081 37.5618C674.918 37.2867 674.728 37.0275 674.514 36.7891C674.514 36.7726 674.514 36.7544 674.514 36.7379C673.994 36.105 673.314 35.6042 672.555 35.2955C672.503 35.2773 672.452 35.2608 672.4 35.2443C664.006 30.4821 647.218 20.6707 643.37 18.6548C638.867 17.2427 633.595 16.8166 629.5 16.7999C624.562 16.8626 619.931 17.4632 615.733 18.654V18.654ZM629.5 26.8456C635.334 26.4771 639.583 27.8317 644.35 30.555C645.014 35.7964 640.992 39.3903 637.441 41.5806C634.947 43.1318 632.01 44.2937 629.5 44.8778C626.674 44.3711 623.791 43.1952 621.405 41.8381C616.297 38.7357 614.65 36.0256 614.65 30.555C619.107 27.2638 624.794 26.8622 629.5 26.8456V26.8456ZM608.05 34.3161C608.05 41.6109 613.976 45.1123 618.156 47.557C620.857 49.0939 623.472 50.1712 626.2 51.0087V128.959C623.696 129.161 622.301 130.808 620.631 132.154C613.893 130.402 606.402 130.903 599.851 128.547C600.061 104.901 599.811 87.4527 599.748 70.8957L593.716 42.4563C598.622 39.6501 603.692 36.7858 608.05 34.3161ZM650.95 34.3161C655.646 37.0234 660.908 40.0788 665.078 42.4563C663.379 52.2662 660.699 62.1621 659.252 71.926C659.219 91.0367 659.23 110.729 659.252 128.546C652.787 130.243 645.248 131.049 638.369 132.153C636.712 130.731 634.906 129.541 632.8 128.959V50.9563C635.637 50.0029 638.614 48.5629 640.895 47.1954C644.35 44.9082 650.95 41.6109 650.95 34.3161V34.3161ZM672.555 55.6456C681.608 79.36 682.209 105.941 682.248 132.308H676.834C674.869 111.607 671.957 90.4399 669.152 72.3896L672.555 55.6456ZM586.445 55.6968L589.952 72.3378C586.984 90.7268 583.988 110.821 582.166 132.308H576.752C576.791 105.958 577.409 79.3999 586.445 55.6968V55.6968ZM639.297 71.2561V74.5535H654.147V71.2561H639.297ZM609.494 106.084C608.113 106.17 606.846 107.218 606.503 108.557L603.1 121.334C602.445 123.052 603.552 125.216 605.329 125.693C607.106 126.169 609.149 124.849 609.442 123.034L612.845 110.257C613.401 108.252 611.573 105.976 609.494 106.084V106.084ZM648.887 106.084C646.964 106.254 645.48 108.399 646 110.257L649.403 123.034C649.697 124.849 651.739 126.169 653.516 125.693C655.294 125.216 656.4 123.052 655.745 121.334L652.342 108.557C651.962 107.067 650.422 105.964 648.887 106.084V106.084Z" fill="black"/>
<path d="M775.005 161.345C777.72 168.007 784.123 172.311 791.317 172.311C798.513 172.311 804.915 168.007 807.629 161.345L809.399 157.006C810.144 155.175 810.037 153.126 809.103 151.384C808.17 149.639 806.523 148.414 804.585 148.021C795.78 146.227 786.853 146.229 778.05 148.02C776.113 148.414 774.466 149.639 773.532 151.382C772.598 153.126 772.492 155.175 773.237 157.006L775.005 161.345ZM776.847 153.157C777.25 152.405 777.962 151.876 778.799 151.705C782.953 150.862 787.135 150.44 791.317 150.44C795.5 150.44 799.682 150.862 803.836 151.707C804.673 151.876 805.385 152.405 805.789 153.159C806.192 153.912 806.238 154.797 805.916 155.587L804.148 159.924L804.147 159.926C802.012 165.164 796.977 168.55 791.317 168.55C785.659 168.55 780.623 165.164 778.488 159.926L776.72 155.588C776.397 154.797 776.444 153.91 776.847 153.157Z" fill="black"/>
<path d="M739.052 258.945H751.397C754.184 258.945 756.45 256.679 756.45 253.894V253.211C756.45 238.414 758.58 223.785 762.787 209.639L760.804 253.666C760.742 255.058 761.237 256.378 762.201 257.384C763.163 258.391 764.46 258.945 765.852 258.945H816.783C818.176 258.945 819.473 258.391 820.436 257.382C821.398 256.376 821.893 255.056 821.83 253.666L819.848 209.641C824.055 223.787 826.185 238.416 826.185 253.211V253.894C826.185 256.679 828.452 258.945 831.237 258.945H843.582C846.369 258.945 848.635 256.679 848.635 253.894V244.009C848.635 232.658 847.393 221.281 844.943 210.194L839.095 183.75C838.97 182.943 838.824 182.14 838.656 181.345C836.177 169.593 828.344 159.762 817.166 154.373C817.032 154.309 816.976 154.116 817.044 153.951C818.039 151.508 817.895 148.772 816.648 146.446C815.4 144.116 813.2 142.478 810.611 141.953C797.809 139.349 784.826 139.349 772.024 141.953C769.435 142.478 767.234 144.116 765.987 146.448C764.74 148.774 764.597 151.51 765.592 153.951C765.659 154.116 765.602 154.309 765.468 154.375C754.29 159.762 746.458 169.593 743.979 181.345C743.811 182.14 743.664 182.944 743.563 183.631L737.692 210.194C735.242 221.279 734 232.656 734 244.011V253.894C734 256.679 736.267 258.945 739.052 258.945ZM737.761 244.011C737.761 232.93 738.972 221.824 741.364 211.005L747.257 184.322C747.371 183.583 747.505 182.849 747.659 182.12C749.894 171.518 756.981 162.64 767.101 157.761C769.023 156.833 769.891 154.538 769.074 152.531C768.503 151.13 768.586 149.558 769.302 148.222C770.019 146.881 771.284 145.939 772.773 145.636C785.08 143.135 797.558 143.135 809.862 145.636C811.35 145.939 812.615 146.881 813.333 148.222C814.05 149.558 814.132 151.13 813.56 152.533C812.743 154.538 813.61 156.835 815.534 157.761C825.653 162.64 832.74 171.518 834.976 182.12C835.129 182.849 835.264 183.585 835.4 184.443L841.27 211.005C843.662 221.826 844.875 232.931 844.875 244.009V253.894C844.875 254.606 844.295 255.185 843.582 255.185H831.237C830.525 255.185 829.946 254.606 829.946 253.894V253.211C829.946 236.115 827.17 219.235 821.696 203.036L819.136 195.462C818.874 194.687 818.149 194.184 817.356 194.184C817.241 194.184 817.124 194.195 817.008 194.217C816.088 194.389 815.434 195.212 815.476 196.149L818.074 253.835C818.09 254.191 817.963 254.527 817.717 254.784C817.47 255.043 817.139 255.185 816.783 255.185H792.257V244.937H804.838C807.53 244.937 809.72 242.748 809.72 240.056V234.43C809.72 232.805 808.562 231.407 806.966 231.106L806.434 231.005C803.358 230.421 801.061 227.726 800.973 224.597C800.922 222.823 799.494 221.433 797.72 221.433H792.257V181.166C799.728 180.851 805.25 176.929 808.769 173.305V196.889C808.769 197.408 809.189 197.829 809.709 197.829C810.228 197.829 810.649 197.408 810.649 196.889V171.187C812.362 169.083 813.294 167.422 813.399 167.23C813.894 166.317 813.555 165.175 812.642 164.681C811.73 164.187 810.587 164.525 810.093 165.438C810.028 165.557 803.435 177.46 791.317 177.46C779.287 177.46 773.056 165.598 772.994 165.478C772.521 164.555 771.39 164.191 770.465 164.661C769.542 165.133 769.174 166.262 769.645 167.186C769.747 167.389 770.705 169.204 772.508 171.457V196.889C772.508 197.408 772.929 197.829 773.448 197.829C773.968 197.829 774.388 197.408 774.388 196.889V173.589C777.809 177.138 783.11 180.858 790.377 181.166V221.433H785.831C783.832 221.433 782.15 222.994 782.002 224.988C781.771 228.111 779.353 230.699 776.248 231.139C774.594 231.378 773.346 232.818 773.346 234.489V240.056C773.346 242.748 775.536 244.937 778.228 244.937H790.377V255.185H765.852C765.496 255.185 765.164 255.043 764.918 254.786C764.672 254.527 764.545 254.189 764.561 253.835L767.159 196.149C767.201 195.212 766.549 194.389 765.628 194.217C764.704 194.035 763.799 194.575 763.5 195.462L760.939 203.036C755.465 219.233 752.69 236.114 752.69 253.211V253.894C752.69 254.606 752.11 255.185 751.397 255.185H739.052C738.34 255.185 737.761 254.606 737.761 253.894V244.011V244.011ZM792.257 225.194H797.24C797.594 229.865 801.096 233.82 805.734 234.7L805.959 234.742V240.056C805.959 240.673 805.456 241.176 804.838 241.176H792.257V225.194V225.194ZM790.377 241.176H778.228C777.61 241.176 777.107 240.673 777.107 240.056V234.812C781.787 233.993 785.401 230.027 785.831 225.194H790.377V241.176V241.176Z" fill="black"/>
<path d="M893.271 133.556H877.414C875.896 133.556 874.664 132.324 874.664 130.806C874.664 129.288 875.896 128.056 877.414 128.056H893.271C894.789 128.056 896.021 129.288 896.021 130.806C896.021 132.324 894.789 133.556 893.271 133.556Z" fill="black"/>
<path d="M982.585 133.556H966.734C965.216 133.556 963.984 132.324 963.984 130.806C963.984 129.288 965.216 128.056 966.734 128.056H982.585C984.103 128.056 985.335 129.288 985.335 130.806C985.335 132.324 984.109 133.556 982.585 133.556Z" fill="black"/>
<path d="M929.973 65.6304C929.527 65.6304 929.082 65.5204 928.68 65.3059C928.229 65.0639 927.872 64.7174 927.619 64.2939C923.395 59.4209 914.336 48.0689 914.336 40.3744C914.336 30.9364 921.09 23.2254 929.731 22.7634C929.824 22.7524 929.918 22.7469 930.006 22.7469C938.861 23.1539 945.675 30.8924 945.675 40.3744C945.675 48.1459 936.424 59.6574 932.266 64.4369C932.041 64.7559 931.755 65.0199 931.419 65.2234C930.974 65.4984 930.473 65.6304 929.973 65.6304ZM929.929 28.2579C924.302 28.5659 919.831 33.8734 919.831 40.3799C919.831 44.4609 924.66 52.0729 930 58.5904C935.341 52.0729 940.17 44.4664 940.17 40.3799C940.17 33.8569 935.671 28.5329 929.929 28.2579Z" fill="black"/>
<path d="M985.968 143.428H967.631C966.443 143.428 965.387 142.664 965.018 141.536L955.289 111.886V140.673C955.289 142.191 954.057 143.423 952.539 143.423H907.461C905.943 143.423 904.711 142.191 904.711 140.673V111.886L894.987 141.536C894.618 142.664 893.562 143.428 892.374 143.428H874.032C873.174 143.428 872.365 143.032 871.848 142.35C871.331 141.668 871.155 140.783 871.381 139.958L892.116 63.7826C892.27 63.2106 892.611 62.6991 893.078 62.3306L905.772 52.4526C906.977 51.5176 908.704 51.7431 909.633 52.9366C910.563 54.1356 910.348 55.8571 909.155 56.7921L897.176 66.1091L877.629 137.928H890.378L904.843 93.8236C905.266 92.5476 906.553 91.7886 907.89 91.9646C909.221 92.1791 910.205 93.3286 910.205 94.6816V137.923H949.789V94.6816C949.789 93.3286 950.773 92.1791 952.104 91.9646C953.463 91.7831 954.733 92.5421 955.151 93.8236L969.622 137.928H982.365L962.829 66.1091L950.856 56.7976C949.657 55.8626 949.442 54.1411 950.377 52.9421C951.312 51.7486 953.034 51.5231 954.238 52.4581L966.938 62.3361C967.405 62.6991 967.746 63.2106 967.9 63.7881L988.63 139.963C988.855 140.783 988.679 141.674 988.162 142.356C987.634 143.027 986.826 143.428 985.968 143.428Z" fill="black"/>
<path d="M929.989 81.509C928.977 81.509 928.036 80.981 927.569 80.046C927.481 79.914 927.415 79.7655 927.354 79.617C923.801 72.4945 916.624 62.1765 910.959 62.1765C909.947 62.1765 909.023 61.621 908.544 60.7355C906.872 57.6445 902.527 35.892 910.238 22.9395C914.336 16.059 920.952 12.572 929.912 12.572C929.961 12.5775 930.038 12.572 930.093 12.572C939.047 12.572 945.669 16.059 949.767 22.9395C957.478 35.8865 953.133 57.6445 951.461 60.7355C950.982 61.621 950.053 62.1765 949.046 62.1765C943.343 62.1765 936.105 72.632 932.579 79.76C932.249 80.5685 931.551 81.223 930.671 81.432C930.434 81.487 930.209 81.509 929.989 81.509ZM912.983 56.88C920.265 58.3265 926.579 67.187 930 72.984C933.426 67.1815 939.74 58.3155 947.022 56.8745C948.381 51.8145 950.916 34.891 944.712 25.233C941.616 20.415 936.831 18.072 930.088 18.072C929.769 18.138 929.835 18.094 929.51 18.0335C923.169 18.072 918.384 20.415 915.287 25.233C909.089 34.869 911.608 51.743 912.983 56.88Z" fill="black"/>
<path d="M920.106 100.594C918.665 100.594 917.323 99.1421 917.218 97.7066L917.004 95.1656C916.674 93.4166 916.492 90.8096 916.448 87.2181C916.371 85.6891 916.322 84.2426 916.322 83.0656C916.338 79.5291 916.333 72.8741 916.327 69.5741C914.732 68.5731 914.457 66.9781 914.463 65.9716C914.463 63.2821 917.504 62.8366 918.648 62.6606C919.44 62.5616 920.276 62.7871 920.887 63.3426C921.492 63.8871 921.827 64.6736 921.794 65.4986C921.794 65.5371 921.772 66.1751 921.794 67.0441C921.877 67.2751 921.926 67.5116 921.937 67.7371C921.948 67.9626 921.981 68.4521 921.943 83.9786L921.948 87.0531C922.08 89.6106 922.295 92.3826 922.454 94.4011C922.487 94.5661 922.52 94.6816 922.548 94.7586C922.938 95.2371 923.164 95.8366 923.169 96.4746C923.18 97.9596 922.845 99.0266 922.13 99.7471C921.618 100.264 920.843 100.594 920.106 100.594Z" fill="black"/>
<path d="M939.895 100.594C939.158 100.594 938.382 100.259 937.865 99.7416C937.15 99.0156 936.815 97.9486 936.831 96.4636C936.837 95.8366 937.062 95.2316 937.453 94.7531C937.475 94.6706 937.508 94.5606 937.546 94.3956C937.711 92.3606 937.92 89.5666 938.052 87.0036L938.058 84.4131C938.058 84.0171 938.008 68.5731 938.063 67.7316C938.074 67.5116 938.129 67.2751 938.206 67.0496C938.234 66.1696 938.206 65.5316 938.206 65.4931C938.173 64.6736 938.509 63.8816 939.114 63.3371C939.724 62.7816 940.533 62.5396 941.352 62.6551C942.496 62.8256 945.543 63.2656 945.543 65.9716C945.543 66.9946 945.263 68.6061 943.679 69.5906C943.673 72.8411 943.668 79.5181 943.679 83.0491C943.679 84.2206 943.629 85.6506 943.552 87.1631C943.508 90.7766 943.327 93.4001 942.997 95.1546L942.782 97.7066C942.678 99.1476 941.336 100.594 939.895 100.594Z" fill="black"/>
<rect x="849.5" y="0.5" width="151" height="171" stroke="black"/>
<rect x="530.5" y="4.5" width="198" height="179" stroke="black"/>
<path d="M520.388 204.694L507.229 197.118C507.229 190.773 504.709 184.687 500.222 180.201C495.735 175.714 489.65 173.193 483.304 173.193C476.959 173.193 470.874 175.714 466.387 180.201C461.9 184.687 459.379 190.773 459.379 197.118L446.221 204.694C444.163 205.873 442.452 207.574 441.262 209.626C440.072 211.677 439.444 214.006 439.442 216.378V265.185C439.452 268.756 440.876 272.178 443.401 274.703C445.926 277.229 449.348 278.652 452.92 278.663H455.392V281.135C455.402 284.706 456.826 288.128 459.351 290.653C461.876 293.179 465.298 294.602 468.87 294.613H497.739C501.31 294.602 504.732 293.179 507.258 290.653C509.783 288.128 511.206 284.706 511.217 281.135V278.663H513.689C517.26 278.652 520.682 277.229 523.208 274.703C525.733 272.178 527.156 268.756 527.167 265.185V216.378C527.165 214.006 526.537 211.677 525.347 209.626C524.157 207.574 522.446 205.873 520.388 204.694ZM483.304 182.962C486.202 182.982 489.04 183.79 491.513 185.3C493.986 186.811 496 188.966 497.34 191.536V191.536H497.061H496.702C496.268 191.244 495.78 191.041 495.267 190.937H471.342C470.864 190.946 470.391 191.041 469.946 191.217H469.627H469.308C470.687 188.713 472.714 186.626 475.176 185.174C477.639 183.722 480.446 182.958 483.304 182.962V182.962ZM490.163 198.912C489.457 200.103 488.453 201.088 487.251 201.773C486.048 202.458 484.688 202.818 483.304 202.818C481.921 202.818 480.561 202.458 479.358 201.773C478.156 201.088 477.152 200.103 476.446 198.912H490.163ZM447.656 266.7H455.392V270.688H452.92C451.726 270.695 450.563 270.308 449.611 269.587C448.659 268.866 447.972 267.851 447.656 266.7V266.7ZM503.242 281.135C503.242 282.594 502.662 283.994 501.63 285.026C500.598 286.058 499.199 286.638 497.739 286.638H468.87C467.41 286.638 466.011 286.058 464.979 285.026C463.947 283.994 463.367 282.594 463.367 281.135V234.8C463.367 233.742 462.947 232.728 462.199 231.98C461.451 231.233 460.437 230.812 459.379 230.812C458.322 230.812 457.308 231.233 456.56 231.98C455.812 232.728 455.392 233.742 455.392 234.8V258.725H447.417V216.378C447.425 215.411 447.683 214.463 448.165 213.624C448.647 212.786 449.337 212.086 450.168 211.593L468.591 201.106C469.804 204.007 471.849 206.484 474.467 208.227C477.085 209.969 480.16 210.899 483.304 210.899C486.449 210.899 489.524 209.969 492.142 208.227C494.76 206.484 496.804 204.007 498.018 201.106L516.441 211.593C517.272 212.086 517.962 212.786 518.444 213.624C518.926 214.463 519.183 215.411 519.192 216.378V258.725H511.217V234.8C511.217 233.742 510.797 232.728 510.049 231.98C509.301 231.233 508.287 230.812 507.229 230.812C506.172 230.812 505.158 231.233 504.41 231.98C503.662 232.728 503.242 233.742 503.242 234.8V281.135ZM513.689 270.688H511.217V266.7H518.953C518.637 267.851 517.949 268.866 516.998 269.587C516.046 270.308 514.883 270.695 513.689 270.688Z" fill="black"/>
<rect x="411.704" y="142.704" width="145.096" height="160.591" stroke="black" stroke-width="1.4087"/>
</svg>
