<svg width="349" height="804" viewBox="0 0 349 804" fill="none" xmlns="http://www.w3.org/2000/svg">
<path d="M12 67H249.5" stroke="black"/>
<path d="M12 124.5L170.5 124" stroke="black"/>
<path d="M12 182H207" stroke="black"/>
<path d="M24.816 60.672C31.728 60.672 36.912 56.592 36.912 49.2V26.4H29.232V49.2C29.232 51.264 28.224 53.184 24.864 53.184C22.272 53.184 21.168 52.176 20.112 50.304L13.44 54.144C15.648 58.416 19.488 60.672 24.816 60.672ZM62.865 60H71.265L59.841 26.4H50.049L38.625 60H47.025L48.705 54.72H61.185L62.865 60ZM51.009 47.52L54.945 35.184L58.881 47.52H51.009ZM88.9433 60.672C95.0873 60.672 100.463 57.648 103.343 52.896L96.7193 49.056C95.2793 51.648 92.3513 53.184 88.9433 53.184C82.9913 53.184 79.1513 49.2 79.1513 43.2C79.1513 37.2 82.9913 33.216 88.9433 33.216C92.3513 33.216 95.2313 34.752 96.7193 37.344L103.343 33.504C100.415 28.752 95.0393 25.728 88.9433 25.728C78.8153 25.728 71.4713 33.312 71.4713 43.2C71.4713 53.088 78.8153 60.672 88.9433 60.672ZM134.111 60L122.303 42.768L133.631 26.4H124.895L114.623 40.992V26.4H106.943V60H114.623V44.448L125.375 60H134.111ZM144.669 52.608V46.656H156.669V39.36H144.669V33.792H157.869V26.4H136.989V60H158.109V52.608H144.669ZM185.003 26.4H160.043V33.792H168.683V60H176.363V33.792H185.003V26.4ZM199.187 60.672C206.483 60.672 211.667 56.832 211.667 50.352C211.667 43.248 205.955 41.472 200.867 39.936C195.635 38.352 194.819 37.296 194.819 35.76C194.819 34.416 196.019 33.216 198.419 33.216C201.491 33.216 203.075 34.704 204.227 37.104L210.707 33.312C208.259 28.368 203.939 25.728 198.419 25.728C192.611 25.728 187.139 29.472 187.139 35.952C187.139 42.384 192.035 44.784 197.027 46.176C202.067 47.568 203.987 48.384 203.987 50.448C203.987 51.744 203.075 53.184 199.427 53.184C195.635 53.184 193.571 51.312 192.371 48.528L185.747 52.368C187.619 57.312 192.131 60.672 199.187 60.672Z" fill="#082A30"/>
<path d="M16.728 112.504C16.728 112.072 17.112 111.832 17.736 111.832C18.528 111.832 19.008 112.264 19.344 112.888L22.416 111.232C21.408 109.528 19.68 108.664 17.736 108.664C15.24 108.664 13.032 109.984 13.032 112.6C13.032 116.752 18.936 116.056 18.936 117.376C18.936 117.856 18.504 118.12 17.64 118.12C16.584 118.12 15.912 117.616 15.6 116.704L12.48 118.48C13.416 120.424 15.24 121.336 17.64 121.336C20.232 121.336 22.632 120.16 22.632 117.4C22.632 112.96 16.728 113.872 16.728 112.504ZM32.1814 109V115.552C32.1814 117.256 31.2694 118.024 29.9494 118.024C28.7974 118.024 27.8614 117.328 27.8614 115.84V109H24.2614V116.368C24.2614 119.608 26.3254 121.336 28.7494 121.336C30.3334 121.336 31.5334 120.76 32.1814 119.872V121H35.7814V109H32.1814ZM40.2216 107.944C41.3976 107.944 42.3816 106.96 42.3816 105.784C42.3816 104.608 41.3976 103.624 40.2216 103.624C39.0456 103.624 38.0616 104.608 38.0616 105.784C38.0616 106.96 39.0456 107.944 40.2216 107.944ZM38.4216 121H42.0216V109H38.4216V121ZM51.6879 112.456V109H49.2159V105.64L45.6159 106.72V109H43.6959V112.456H45.6159V116.704C45.6159 120.064 46.9839 121.48 51.6879 121V117.736C50.1039 117.832 49.2159 117.736 49.2159 116.704V112.456H51.6879ZM56.7079 116.44H65.2279C65.3239 115.984 65.3719 115.504 65.3719 115C65.3719 111.376 62.7799 108.664 59.2759 108.664C55.4839 108.664 52.8919 111.424 52.8919 115C52.8919 118.576 55.4359 121.336 59.5399 121.336C61.8199 121.336 63.5959 120.496 64.7719 118.864L61.8919 117.208C61.4119 117.736 60.5719 118.12 59.5879 118.12C58.2679 118.12 57.1639 117.688 56.7079 116.44ZM56.6359 113.752C56.9719 112.528 57.8839 111.856 59.2519 111.856C60.3319 111.856 61.4119 112.36 61.7959 113.752H56.6359ZM76.0086 104.2V110.128C75.2166 109.216 74.0406 108.664 72.4326 108.664C69.2886 108.664 66.6966 111.424 66.6966 115C66.6966 118.576 69.2886 121.336 72.4326 121.336C74.0406 121.336 75.2166 120.784 76.0086 119.872V121H79.6086V104.2H76.0086ZM73.1526 117.928C71.4966 117.928 70.2966 116.8 70.2966 115C70.2966 113.2 71.4966 112.072 73.1526 112.072C74.8086 112.072 76.0086 113.2 76.0086 115C76.0086 116.8 74.8086 117.928 73.1526 117.928ZM94.8497 107.32V103.864C90.8657 103.624 89.0177 105.64 89.0177 109H87.4097V112.456H89.0177V121H92.6177V112.456H94.8497V109H92.6177C92.6177 107.608 93.5057 107.2 94.8497 107.32ZM101.58 121.336C105.108 121.336 107.94 118.576 107.94 115C107.94 111.424 105.108 108.664 101.58 108.664C98.052 108.664 95.22 111.424 95.22 115C95.22 118.576 98.052 121.336 101.58 121.336ZM101.58 117.832C100.02 117.832 98.82 116.704 98.82 115C98.82 113.296 100.02 112.168 101.58 112.168C103.14 112.168 104.34 113.296 104.34 115C104.34 116.704 103.14 117.832 101.58 117.832ZM113.576 111.136V109H109.976V121H113.576V115.576C113.576 113.2 115.688 112.6 117.176 112.84V108.76C115.664 108.76 114.056 109.528 113.576 111.136Z" fill="#44240C"/>
<path d="M29.784 162.932C31.152 161.744 31.98 160.088 31.98 158C31.98 153.644 28.416 150.8 24.024 150.8H14.16V176H24.744C29.244 176 32.88 173.084 32.88 168.62C32.88 166.064 31.656 164.12 29.784 162.932ZM24.024 156.2C25.356 156.2 26.22 157.136 26.22 158.432C26.22 159.728 25.32 160.664 24.024 160.664H19.92V156.2H24.024ZM24.744 170.6H19.92V165.776H24.744C26.184 165.776 27.12 166.784 27.12 168.188C27.12 169.592 26.184 170.6 24.744 170.6ZM41.5059 170.456V165.992H50.5059V160.52H41.5059V156.344H51.4059V150.8H35.7459V176H51.5859V170.456H41.5059ZM68.0838 176H74.2758L68.9118 166.748C71.6838 165.344 73.5558 162.536 73.5558 159.44C73.5558 154.652 69.7038 150.8 64.9158 150.8H54.8358V176H60.5958V167.72H63.3318L68.0838 176ZM60.5958 156.2H64.9158C66.4998 156.2 67.7958 157.604 67.7958 159.44C67.7958 161.276 66.4998 162.68 64.9158 162.68H60.5958V156.2ZM101.581 161.96H88.9447V167H95.6767C94.7767 169.412 92.5807 170.888 89.2327 170.888C84.3367 170.888 81.3127 167.756 81.3127 163.472C81.3127 159.044 84.4807 155.912 88.7287 155.912C91.5727 155.912 93.8407 157.208 94.8847 158.864L99.7807 156.056C97.6567 152.672 93.5887 150.296 88.7647 150.296C81.3487 150.296 75.5527 156.128 75.5527 163.436C75.5527 170.672 81.2407 176.504 89.1607 176.504C96.2167 176.504 101.581 171.824 101.581 164.12V161.96ZM110.588 170.456V165.992H119.588V160.52H110.588V156.344H120.488V150.8H104.828V176H120.668V170.456H110.588ZM137.958 150.8V164.48L128.238 150.8H123.918V176H129.678V162.32L139.398 176H143.718V150.8H137.958Z" fill="#082A30"/>
<rect x="0.5" y="0.5" width="261" height="215" stroke="black"/>
<path d="M235.733 384.654C225.153 390.415 214.374 396.744 205.724 401.656C204.692 402.252 204.085 403.37 203.558 404.231C186.562 435.155 186.8 470.507 186.8 503.254C186.8 505.844 189.158 508.2 191.75 508.2H206.6C209.076 508.2 211.369 506.082 211.55 503.615C211.632 502.524 211.719 501.453 211.808 500.369C213.7 502.803 216.919 504.299 219.594 504.748C226.793 505.702 234.094 507.385 241.25 508.148C243.334 508.148 244.325 507.481 245.22 506.963C246.31 506.396 247.396 505.467 248.108 504.851H250.892C251.796 505.679 252.933 506.417 253.831 507.014C254.731 507.522 255.689 508.148 257.75 508.148C264.945 507.181 272.281 505.902 279.509 504.748C282.896 503.997 285.118 502.771 287.192 500.524C287.276 501.556 287.372 502.575 287.45 503.615C287.631 506.082 289.924 508.206 292.4 508.2H307.25C309.842 508.2 312.2 505.844 312.2 503.254C312.2 470.273 312.449 434.643 295.081 403.562C294.918 403.287 294.728 403.027 294.514 402.789C294.514 402.773 294.514 402.754 294.514 402.738C293.994 402.105 293.314 401.604 292.555 401.295C292.503 401.277 292.452 401.261 292.4 401.244C284.006 396.482 267.218 386.671 263.37 384.655C258.867 383.243 253.595 382.817 249.5 382.8C244.562 382.863 239.931 383.463 235.733 384.654V384.654ZM249.5 392.846C255.334 392.477 259.583 393.832 264.35 396.555C265.014 401.796 260.992 405.39 257.441 407.581C254.947 409.132 252.01 410.294 249.5 410.878C246.674 410.371 243.791 409.195 241.405 407.838C236.297 404.736 234.65 402.026 234.65 396.555C239.107 393.264 244.794 392.862 249.5 392.846V392.846ZM228.05 400.316C228.05 407.611 233.976 411.112 238.156 413.557C240.857 415.094 243.472 416.171 246.2 417.009V494.959C243.696 495.161 242.301 496.808 240.631 498.154C233.893 496.402 226.402 496.903 219.851 494.547C220.061 470.901 219.811 453.453 219.748 436.896L213.716 408.456C218.622 405.65 223.692 402.786 228.05 400.316ZM270.95 400.316C275.646 403.023 280.908 406.079 285.078 408.456C283.379 418.266 280.699 428.162 279.252 437.926C279.219 457.037 279.23 476.729 279.252 494.546C272.787 496.243 265.248 497.049 258.369 498.153C256.712 496.731 254.906 495.541 252.8 494.959V416.956C255.637 416.003 258.614 414.563 260.895 413.195C264.35 410.908 270.95 407.611 270.95 400.316V400.316ZM292.555 421.646C301.608 445.36 302.209 471.941 302.248 498.308H296.834C294.869 477.607 291.957 456.44 289.152 438.39L292.555 421.646ZM206.445 421.697L209.952 438.338C206.984 456.727 203.988 476.821 202.166 498.308H196.752C196.791 471.958 197.409 445.4 206.445 421.697V421.697ZM259.297 437.256V440.553H274.147V437.256H259.297ZM229.494 472.084C228.113 472.17 226.846 473.218 226.503 474.557L223.1 487.334C222.445 489.052 223.552 491.216 225.329 491.693C227.106 492.169 229.149 490.849 229.442 489.034L232.845 476.257C233.401 474.252 231.573 471.976 229.494 472.084V472.084ZM268.887 472.084C266.964 472.254 265.48 474.399 266 476.257L269.403 489.034C269.697 490.849 271.739 492.169 273.516 491.693C275.294 491.216 276.4 489.052 275.745 487.334L272.342 474.557C271.962 473.067 270.422 471.964 268.887 472.084V472.084Z" fill="black"/>
<path d="M79.0057 523.345C81.7205 530.007 88.1234 534.311 95.3177 534.311C102.513 534.311 108.916 530.007 111.63 523.345L113.399 519.006C114.144 517.175 114.037 515.126 113.103 513.384C112.17 511.639 110.523 510.414 108.585 510.022C99.7806 508.228 90.8529 508.229 82.0501 510.02C80.1129 510.414 78.4658 511.639 77.5321 513.382C76.5984 515.126 76.4919 517.175 77.2374 519.006L79.0057 523.345ZM80.8474 515.157C81.2505 514.405 81.962 513.876 82.7993 513.705C86.9528 512.862 91.1348 512.44 95.3177 512.44C99.5005 512.44 103.683 512.862 107.836 513.707C108.673 513.876 109.385 514.405 109.789 515.159C110.192 515.912 110.239 516.797 109.916 517.587L108.148 521.924L108.147 521.926C106.013 527.164 100.977 530.55 95.3177 530.55C89.6594 530.55 84.6236 527.164 82.4881 521.926L80.7207 517.589C80.3975 516.797 80.4444 515.91 80.8474 515.157Z" fill="black"/>
<path d="M43.0523 620.945H55.3972C58.1836 620.945 60.4504 618.679 60.4504 615.894V615.211C60.4504 600.414 62.5804 585.785 66.7872 571.639L64.8041 615.666C64.7416 617.058 65.2374 618.378 66.2005 619.384C67.1627 620.391 68.46 620.945 69.8518 620.945H120.783C122.176 620.945 123.473 620.391 124.436 619.382C125.398 618.376 125.893 617.056 125.83 615.666L123.848 571.641C128.055 585.787 130.185 600.416 130.185 615.211V615.894C130.185 618.679 132.452 620.945 135.237 620.945H147.582C150.369 620.945 152.635 618.679 152.635 615.894V606.009C152.635 594.658 151.393 583.281 148.943 572.194L143.095 545.75C142.97 544.943 142.824 544.14 142.656 543.345C140.177 531.593 132.344 521.762 121.166 516.373C121.032 516.309 120.976 516.116 121.044 515.951C122.039 513.508 121.895 510.772 120.648 508.446C119.4 506.116 117.2 504.478 114.611 503.953C101.809 501.349 88.8263 501.349 76.0242 503.953C73.4352 504.478 71.2345 506.116 69.9868 508.448C68.74 510.774 68.5968 513.51 69.592 515.951C69.659 516.116 69.6021 516.309 69.468 516.375C58.2901 521.762 50.4578 531.593 47.9789 543.345C47.8109 544.14 47.664 544.944 47.563 545.631L41.6917 572.194C39.2422 583.279 38 594.656 38 606.011V615.894C38 618.679 40.2668 620.945 43.0523 620.945ZM41.7606 606.011C41.7606 594.93 42.9725 583.824 45.3641 573.005L51.2574 546.322C51.3713 545.583 51.5053 544.849 51.6586 544.12C53.8942 533.518 60.9811 524.64 71.1014 519.761C73.0229 518.833 73.8906 516.538 73.0744 514.531C72.5033 513.13 72.5859 511.558 73.302 510.222C74.0191 508.881 75.2842 507.939 76.7734 507.636C89.0797 505.135 101.558 505.135 113.862 507.636C115.35 507.939 116.615 508.881 117.333 510.222C118.05 511.558 118.132 513.13 117.56 514.533C116.743 516.538 117.61 518.835 119.534 519.761C129.653 524.64 136.74 533.518 138.976 544.12C139.129 544.849 139.264 545.585 139.4 546.443L145.27 573.005C147.662 583.826 148.875 594.931 148.875 606.009V615.894C148.875 616.606 148.295 617.185 147.582 617.185H135.237C134.525 617.185 133.946 616.606 133.946 615.894V615.211C133.946 598.115 131.17 581.235 125.696 565.036L123.136 557.462C122.874 556.687 122.149 556.184 121.356 556.184C121.241 556.184 121.124 556.195 121.008 556.217C120.088 556.389 119.434 557.212 119.476 558.149L122.074 615.835C122.09 616.191 121.963 616.527 121.717 616.784C121.47 617.043 121.139 617.185 120.783 617.185H96.2574V606.937H108.838C111.53 606.937 113.72 604.748 113.72 602.056V596.43C113.72 594.805 112.562 593.407 110.966 593.106L110.434 593.005C107.358 592.421 105.061 589.726 104.973 586.597C104.922 584.823 103.494 583.433 101.72 583.433H96.2574V543.166C103.728 542.851 109.25 538.929 112.769 535.305V558.889C112.769 559.408 113.189 559.829 113.709 559.829C114.228 559.829 114.649 559.408 114.649 558.889V533.187C116.362 531.083 117.294 529.422 117.399 529.23C117.894 528.317 117.555 527.175 116.642 526.681C115.73 526.187 114.587 526.525 114.093 527.438C114.028 527.557 107.435 539.46 95.3173 539.46C83.2874 539.46 77.0562 527.598 76.9937 527.478C76.5209 526.555 75.3898 526.191 74.4653 526.661C73.5417 527.133 73.1735 528.262 73.6445 529.186C73.7471 529.389 74.705 531.204 76.5081 533.457V558.889C76.5081 559.408 76.9286 559.829 77.4482 559.829C77.9679 559.829 78.3883 559.408 78.3883 558.889V535.589C81.8087 539.138 87.1101 542.858 94.3771 543.166V583.433H89.8307C87.832 583.433 86.15 584.994 86.0022 586.988C85.7708 590.111 83.3525 592.699 80.2484 593.139C78.594 593.378 77.3463 594.818 77.3463 596.489V602.056C77.3463 604.748 79.536 606.937 82.2279 606.937H94.3771V617.185H69.8518C69.4956 617.185 69.1642 617.043 68.9181 616.786C68.672 616.527 68.5453 616.189 68.561 615.835L71.1592 558.149C71.2014 557.212 70.5487 556.389 69.6278 556.217C68.7042 556.035 67.7989 556.575 67.4996 557.462L64.939 565.036C59.4653 581.233 56.6899 598.114 56.6899 615.211V615.894C56.6899 616.606 56.1096 617.185 55.3972 617.185H43.0523C42.3399 617.185 41.7606 616.606 41.7606 615.894V606.011V606.011ZM96.2574 587.194H101.24C101.594 591.865 105.096 595.82 109.734 596.7L109.959 596.742V602.056C109.959 602.673 109.456 603.176 108.838 603.176H96.2574V587.194V587.194ZM94.3771 603.176H82.2279C81.61 603.176 81.1069 602.673 81.1069 602.056V596.812C85.7874 595.993 89.401 592.027 89.8307 587.194H94.3771V603.176V603.176Z" fill="black"/>
<rect x="22.5" y="470.5" width="145" height="181.5" stroke="black"/>
<g clip-path="url(#clip0_130:43)">
<path d="M197.271 760.556H181.414C179.896 760.556 178.664 759.324 178.664 757.806C178.664 756.288 179.896 755.056 181.414 755.056H197.271C198.789 755.056 200.021 756.288 200.021 757.806C200.021 759.324 198.789 760.556 197.271 760.556Z" fill="black"/>
<path d="M286.585 760.556H270.734C269.216 760.556 267.984 759.324 267.984 757.806C267.984 756.288 269.216 755.056 270.734 755.056H286.585C288.103 755.056 289.335 756.288 289.335 757.806C289.335 759.324 288.108 760.556 286.585 760.556Z" fill="black"/>
<path d="M233.972 692.63C233.527 692.63 233.081 692.52 232.68 692.306C232.229 692.064 231.871 691.717 231.618 691.294C227.394 686.421 218.336 675.069 218.336 667.374C218.336 657.936 225.09 650.225 233.73 649.763C233.824 649.752 233.917 649.747 234.005 649.747C242.86 650.154 249.675 657.892 249.675 667.374C249.675 675.146 240.424 686.657 236.266 691.437C236.04 691.756 235.754 692.02 235.419 692.223C234.973 692.498 234.473 692.63 233.972 692.63ZM233.928 655.258C228.302 655.566 223.83 660.873 223.83 667.38C223.83 671.461 228.659 679.073 234 685.59C239.34 679.073 244.169 671.466 244.169 667.38C244.169 660.857 239.67 655.533 233.928 655.258Z" fill="black"/>
<path d="M289.968 770.428H271.631C270.443 770.428 269.387 769.664 269.018 768.536L259.289 738.886V767.673C259.289 769.191 258.057 770.423 256.539 770.423H211.461C209.943 770.423 208.711 769.191 208.711 767.673V738.886L198.987 768.536C198.618 769.664 197.562 770.428 196.374 770.428H178.032C177.174 770.428 176.365 770.032 175.848 769.35C175.331 768.668 175.155 767.783 175.381 766.958L196.116 690.783C196.27 690.211 196.611 689.699 197.078 689.331L209.772 679.453C210.977 678.518 212.704 678.743 213.633 679.937C214.563 681.136 214.348 682.857 213.155 683.792L201.176 693.109L181.629 764.928H194.378L208.843 720.824C209.266 719.548 210.553 718.789 211.89 718.965C213.221 719.179 214.205 720.329 214.205 721.682V764.923H253.789V721.682C253.789 720.329 254.773 719.179 256.104 718.965C257.463 718.783 258.733 719.542 259.151 720.824L273.622 764.928H286.365L266.829 693.109L254.856 683.798C253.657 682.863 253.442 681.141 254.377 679.942C255.312 678.749 257.034 678.523 258.238 679.458L270.938 689.336C271.405 689.699 271.746 690.211 271.9 690.788L292.63 766.963C292.855 767.783 292.679 768.674 292.162 769.356C291.634 770.027 290.826 770.428 289.968 770.428Z" fill="black"/>
<path d="M233.989 708.509C232.977 708.509 232.036 707.981 231.569 707.046C231.481 706.914 231.415 706.766 231.354 706.617C227.801 699.495 220.624 689.177 214.959 689.177C213.947 689.177 213.023 688.621 212.544 687.736C210.872 684.645 206.527 662.892 214.238 649.94C218.336 643.059 224.952 639.572 233.912 639.572C233.961 639.578 234.038 639.572 234.093 639.572C243.047 639.572 249.669 643.059 253.767 649.94C261.478 662.887 257.133 684.645 255.461 687.736C254.982 688.621 254.053 689.177 253.046 689.177C247.343 689.177 240.105 699.632 236.579 706.76C236.249 707.569 235.551 708.223 234.671 708.432C234.434 708.487 234.209 708.509 233.989 708.509ZM216.983 683.88C224.265 685.327 230.579 694.187 234 699.984C237.426 694.182 243.74 685.316 251.022 683.875C252.381 678.815 254.916 661.891 248.712 652.233C245.616 647.415 240.831 645.072 234.088 645.072C233.769 645.138 233.835 645.094 233.51 645.034C227.169 645.072 222.384 647.415 219.287 652.233C213.089 661.869 215.608 678.743 216.983 683.88Z" fill="black"/>
<path d="M234.033 770.428C232.515 770.428 231.283 769.196 231.283 767.678L231.25 701.969C231.25 700.451 232.482 699.219 234 699.219C235.518 699.219 236.75 700.451 236.75 701.969L236.777 767.672C236.783 769.196 235.551 770.428 234.033 770.428Z" fill="black"/>
<path d="M224.105 727.594C222.664 727.594 221.322 726.142 221.218 724.707L221.003 722.166C220.673 720.417 220.492 717.81 220.448 714.218C220.371 712.689 220.321 711.243 220.321 710.066C220.338 706.529 220.332 699.874 220.327 696.574C218.732 695.573 218.457 693.978 218.462 692.972C218.462 690.282 221.504 689.837 222.648 689.661C223.44 689.562 224.276 689.787 224.886 690.343C225.491 690.887 225.827 691.674 225.794 692.499C225.794 692.537 225.772 693.175 225.794 694.044C225.876 694.275 225.926 694.512 225.937 694.737C225.948 694.963 225.981 695.452 225.942 710.979L225.948 714.053C226.08 716.611 226.294 719.383 226.454 721.401C226.487 721.566 226.52 721.682 226.547 721.759C226.938 722.237 227.163 722.837 227.169 723.475C227.18 724.96 226.844 726.027 226.129 726.747C225.618 727.264 224.842 727.594 224.105 727.594Z" fill="black"/>
<path d="M243.894 727.594C243.157 727.594 242.382 727.259 241.865 726.742C241.15 726.016 240.814 724.949 240.831 723.464C240.836 722.837 241.062 722.232 241.452 721.753C241.474 721.671 241.507 721.561 241.546 721.396C241.711 719.361 241.92 716.567 242.052 714.004L242.057 711.413C242.057 711.017 242.008 695.573 242.063 694.732C242.074 694.512 242.129 694.275 242.206 694.05C242.233 693.17 242.206 692.532 242.206 692.493C242.173 691.674 242.508 690.882 243.113 690.337C243.724 689.782 244.532 689.54 245.352 689.655C246.496 689.826 249.543 690.266 249.543 692.972C249.543 693.995 249.262 695.606 247.678 696.591C247.673 699.841 247.667 706.518 247.678 710.049C247.678 711.221 247.629 712.651 247.552 714.163C247.508 717.777 247.326 720.4 246.996 722.155L246.782 724.707C246.677 726.148 245.335 727.594 243.894 727.594Z" fill="black"/>
</g>
<rect x="153.5" y="627.5" width="151" height="171" stroke="black"/>
<rect x="150.5" y="370.5" width="198" height="179" stroke="black"/>
<path d="M136.946 296.501L123.787 288.925C123.787 282.58 121.267 276.494 116.78 272.007C112.293 267.521 106.208 265 99.8625 265C93.5172 265 87.4318 267.521 82.945 272.007C78.4582 276.494 75.9375 282.58 75.9375 288.925L62.7787 296.501C60.7208 297.68 59.0103 299.381 57.8201 301.432C56.6299 303.484 56.002 305.813 56 308.185V356.992C56.0105 360.563 57.4339 363.985 59.9592 366.51C62.4845 369.036 65.9065 370.459 69.4778 370.469H71.95V372.942C71.9605 376.513 73.3839 379.935 75.9092 382.46C78.4345 384.986 81.8565 386.409 85.4278 386.419H114.297C117.869 386.409 121.291 384.986 123.816 382.46C126.341 379.935 127.764 376.513 127.775 372.942V370.469H130.247C133.819 370.459 137.241 369.036 139.766 366.51C142.291 363.985 143.714 360.563 143.725 356.992V308.185C143.723 305.813 143.095 303.484 141.905 301.432C140.715 299.381 139.004 297.68 136.946 296.501ZM99.8625 274.769C102.76 274.789 105.598 275.597 108.071 277.107C110.544 278.618 112.558 280.773 113.899 283.343V283.343H113.619H113.261C112.826 283.051 112.338 282.848 111.825 282.744H87.9C87.4218 282.753 86.9491 282.848 86.5044 283.024H86.1854H85.8664C87.2456 280.52 89.2723 278.433 91.7346 276.981C94.1968 275.528 97.004 274.765 99.8625 274.769V274.769ZM106.721 290.719C106.015 291.909 105.011 292.895 103.809 293.58C102.606 294.265 101.246 294.625 99.8625 294.625C98.4787 294.625 97.1188 294.265 95.9163 293.58C94.7138 292.895 93.7101 291.909 93.004 290.719H106.721ZM64.2142 358.507H71.95V362.494H69.4778C68.2838 362.502 67.1208 362.115 66.1691 361.394C65.2174 360.673 64.5303 359.658 64.2142 358.507V358.507ZM119.8 372.942C119.8 374.401 119.22 375.801 118.188 376.833C117.156 377.865 115.757 378.444 114.297 378.444H85.4278C83.9683 378.444 82.5687 377.865 81.5367 376.833C80.5048 375.801 79.925 374.401 79.925 372.942V326.607C79.925 325.549 79.5049 324.535 78.7571 323.787C78.0093 323.039 76.9951 322.619 75.9375 322.619C74.8799 322.619 73.8657 323.039 73.1179 323.787C72.3701 324.535 71.95 325.549 71.95 326.607V350.532H63.975V308.185C63.9835 307.218 64.2411 306.269 64.7231 305.431C65.2051 304.593 65.895 303.893 66.7264 303.4L85.1486 292.913C86.3625 295.814 88.407 298.291 91.025 300.034C93.643 301.776 96.7176 302.706 99.8625 302.706C103.007 302.706 106.082 301.776 108.7 300.034C111.318 298.291 113.362 295.814 114.576 292.913L132.999 303.4C133.83 303.893 134.52 304.593 135.002 305.431C135.484 306.269 135.742 307.218 135.75 308.185V350.532H127.775V326.607C127.775 325.549 127.355 324.535 126.607 323.787C125.859 323.039 124.845 322.619 123.787 322.619C122.73 322.619 121.716 323.039 120.968 323.787C120.22 324.535 119.8 325.549 119.8 326.607V372.942ZM130.247 362.494H127.775V358.507H135.511C135.195 359.658 134.508 360.673 133.556 361.394C132.604 362.115 131.441 362.502 130.247 362.494Z" fill="black"/>
<path d="M111.825 353.243C111.657 352.746 111.393 352.286 111.048 351.891C110.703 351.495 110.283 351.172 109.813 350.938C109.343 350.705 108.831 350.567 108.308 350.531C107.784 350.496 107.258 350.564 106.761 350.731C106.263 350.899 105.804 351.163 105.408 351.508C105.013 351.853 104.689 352.273 104.456 352.743C104.223 353.213 104.084 353.725 104.049 354.248C104.013 354.772 104.081 355.298 104.249 355.795L108.236 367.758C108.492 368.518 108.971 369.184 109.612 369.668C110.252 370.152 111.023 370.431 111.825 370.469C112.257 370.458 112.686 370.391 113.101 370.27C113.617 370.124 114.099 369.876 114.517 369.54C114.934 369.204 115.28 368.787 115.534 368.314C115.787 367.842 115.942 367.323 115.99 366.788C116.038 366.254 115.977 365.716 115.812 365.206L111.825 353.243Z" fill="black"/>
<path d="M93.1636 350.731C92.6662 350.562 92.1404 350.493 91.6162 350.528C91.0921 350.563 90.58 350.701 90.1095 350.935C89.6389 351.168 89.2191 351.492 88.8742 351.889C88.5292 352.285 88.266 352.745 88.0995 353.243L84.112 365.206C83.9117 365.715 83.8182 366.26 83.8374 366.806C83.8567 367.353 83.9882 367.89 84.2238 368.384C84.4594 368.877 84.7941 369.317 85.2071 369.676C85.62 370.035 86.1024 370.305 86.6241 370.469C87.0477 370.524 87.4765 370.524 87.9001 370.469C88.7361 370.472 89.5516 370.211 90.2313 369.724C90.9111 369.238 91.4207 368.55 91.6882 367.758L95.6757 355.795C95.8446 355.298 95.9136 354.772 95.8787 354.248C95.8437 353.724 95.7056 353.212 95.4721 352.741C95.2387 352.271 94.9146 351.851 94.5184 351.506C94.1223 351.161 93.6618 350.898 93.1636 350.731V350.731Z" fill="black"/>
<rect x="27.7043" y="251.704" width="145.096" height="160.591" stroke="black" stroke-width="1.4087"/>
<defs>
<clipPath id="clip0_130:43">
<rect width="132" height="165" fill="white" transform="translate(168 639)"/>
</clipPath>
</defs>
</svg>
