<svg xmlns="http://www.w3.org/2000/svg" xmlns:xlink="http://www.w3.org/1999/xlink" viewBox="0 0 24 30" version="1.1" x="0px" y="0px"><title>icon-shopping-bag</title><desc>Created with love by @immaulana.</desc><g stroke="none" stroke-width="1" fill="none" fill-rule="evenodd"><path d="M3.0001301,7.5 C2.97610585,7.5 2.95211284,7.50173149 2.92833754,7.50518102 C2.65505656,7.54483095 2.46566118,7.79851159 2.50531112,8.07179257 L4.53655071,22.0717926 C4.57221871,22.3176287 4.78295952,22.5 5.03136969,22.5 L19.3839568,22.5 C19.6350035,22.5 19.8471275,22.3138429 19.8797241,22.0649214 L21.7130435,8.06492142 C21.7158624,8.04339578 21.7172763,8.02170941 21.7172763,8 C21.7172763,7.72385763 21.4934186,7.5 21.2172763,7.5 L3.0001301,7.5 Z M3.0001301,6.5 L21.2172763,6.5 C22.0457034,6.5 22.7172763,7.17157288 22.7172763,8 C22.7172763,8.06512824 22.7130346,8.13018734 22.7045781,8.19476425 L20.8712587,22.1947642 C20.7734688,22.9415288 20.137097,23.5 19.3839568,23.5 L5.03136969,23.5 C4.28613918,23.5 3.65391676,22.9528861 3.54691274,22.2153777 L1.51567315,8.2153777 C1.39672333,7.39553476 1.96490947,6.63449286 2.78475241,6.51554305 C2.85607833,6.50519447 2.92805736,6.5 3.0001301,6.5 Z M8.70678446,9 L7.70678446,9 L7.70678446,3 C7.70678446,1.61928813 8.82607258,0.5 10.2067845,0.5 L14.2067845,0.5 C15.5874963,0.5 16.7067845,1.61928813 16.7067845,3 L16.7067845,9 L15.7067845,9 L15.7067845,3 C15.7067845,2.17157288 15.0352116,1.5 14.2067845,1.5 L10.2067845,1.5 C9.37835733,1.5 8.70678446,2.17157288 8.70678446,3 L8.70678446,9 Z M8.20678446,10.5 C8.48292683,10.5 8.70678446,10.2761424 8.70678446,10 C8.70678446,9.72385763 8.48292683,9.5 8.20678446,9.5 C7.93064208,9.5 7.70678446,9.72385763 7.70678446,10 C7.70678446,10.2761424 7.93064208,10.5 8.20678446,10.5 Z M8.20678446,11.5 C7.37835733,11.5 6.70678446,10.8284271 6.70678446,10 C6.70678446,9.17157288 7.37835733,8.5 8.20678446,8.5 C9.03521158,8.5 9.70678446,9.17157288 9.70678446,10 C9.70678446,10.8284271 9.03521158,11.5 8.20678446,11.5 Z M16.2067845,10.5 C16.4829268,10.5 16.7067845,10.2761424 16.7067845,10 C16.7067845,9.72385763 16.4829268,9.5 16.2067845,9.5 C15.9306421,9.5 15.7067845,9.72385763 15.7067845,10 C15.7067845,10.2761424 15.9306421,10.5 16.2067845,10.5 Z M16.2067845,11.5 C15.3783573,11.5 14.7067845,10.8284271 14.7067845,10 C14.7067845,9.17157288 15.3783573,8.5 16.2067845,8.5 C17.0352116,8.5 17.7067845,9.17157288 17.7067845,10 C17.7067845,10.8284271 17.0352116,11.5 16.2067845,11.5 Z" fill="#000000" fill-rule="nonzero"/></g><text x="0" y="39" fill="#000000" font-size="5px" font-weight="bold" font-family="'Helvetica Neue', Helvetica, Arial-Unicode, Arial, Sans-serif">Created by Imam Maulana</text><text x="0" y="44" fill="#000000" font-size="5px" font-weight="bold" font-family="'Helvetica Neue', Helvetica, Arial-Unicode, Arial, Sans-serif">from the Noun Project</text></svg>